HIERARCHY
ROOT Hips
{
	OFFSET 0.00000 0.00000 0.00000
	CHANNELS 6 Xposition Yposition Zposition Zrotation Yrotation Xrotation 
	JOINT LHipJoint
	{
		OFFSET 0 0 0
		CHANNELS 3 Zrotation Yrotation Xrotation
		JOINT LeftHip
		{
			OFFSET 1.74857 -1.85566 0.69197
			CHANNELS 3 Zrotation Yrotation Xrotation
			JOINT LeftKnee
			{
				OFFSET 2.40003 -6.59403 0.00000
				CHANNELS 3 Zrotation Yrotation Xrotation
				JOINT LeftAnkle
				{
					OFFSET 2.82169 -7.75254 0.00000
					CHANNELS 3 Zrotation Yrotation Xrotation
					JOINT LeftToe
					{
						OFFSET 0.16466 -0.45240 2.26890
						CHANNELS 3 Zrotation Yrotation Xrotation
						End Site
						{
							OFFSET 0.00000 -0.00000 1.16486
						}
					}
				}
			}
		}
	}
	JOINT RHipJoint
	{
		OFFSET 0 0 0
		CHANNELS 3 Zrotation Yrotation Xrotation
		JOINT RightHip
		{
			OFFSET -1.64169 -1.85566 0.69197
			CHANNELS 3 Zrotation Yrotation Xrotation
			JOINT RightKnee
			{
				OFFSET -2.41814 -6.64379 0.00000
				CHANNELS 3 Zrotation Yrotation Xrotation
				JOINT RightAnkle
				{
					OFFSET -2.80588 -7.70911 0.00000
					CHANNELS 3 Zrotation Yrotation Xrotation
					JOINT RightToe
					{
						OFFSET -0.19098 -0.52472 2.25401
						CHANNELS 3 Zrotation Yrotation Xrotation
						End Site
						{
							OFFSET -0.00000 -0.00000 1.16333
						}
					}
				}
			}
		}
	}
	JOINT lowerback
	{
		OFFSET 0 0 0
		CHANNELS 3 Zrotation Yrotation Xrotation
		JOINT Chest
		{
			OFFSET -0.02828 2.14690 -0.11061
			CHANNELS 3 Zrotation Yrotation Xrotation
			JOINT Chest2
			{
				OFFSET -0.00167 2.15299 0.00759
				CHANNELS 3 Zrotation Yrotation Xrotation
				JOINT lowerneck
				{
					OFFSET 0 0 0
					CHANNELS 3 Zrotation Yrotation Xrotation
					JOINT Neck
					{
						OFFSET -0.09296 1.90118 0.07197
						CHANNELS 3 Zrotation Yrotation Xrotation
						JOINT Head
						{
							OFFSET 0.08490 1.89526 -0.24604
							CHANNELS 3 Zrotation Yrotation Xrotation
							End Site
							{
								OFFSET 0.03186 1.92109 -0.09483
							}
						}
					}
				}
				JOINT LeftCollar
				{
					OFFSET 0 0 0
					CHANNELS 3 Zrotation Yrotation Xrotation
					JOINT LeftShoulder
					{
						OFFSET 3.21569 1.44644 -0.03720
CHANNELS 3 Zrotation Xrotation Yrotation
						JOINT LeftElbow
						{
OFFSET 0 -5.476510 -0.000000
CHANNELS 3 Zrotation Xrotation Yrotation
							JOINT LeftWrist
							{
OFFSET 0 -3.090580 -0.000000
CHANNELS 3 Zrotation Xrotation Yrotation
								JOINT lhand
								{
									OFFSET 0 0 0
CHANNELS 3 Zrotation Xrotation Yrotation
									JOINT LFingers
									{
OFFSET 0 -0.771610 -0.000000
CHANNELS 3 Zrotation Xrotation Yrotation
										End Site
										{
OFFSET 0 -0.622090 -0.000000
										}
									}
								}
								JOINT LThumb
								{
OFFSET 0 0.000000 0.000000
CHANNELS 3 Zrotation Xrotation Yrotation
									End Site
									{
OFFSET 0 -0.631590 0.631590
									}
								}
							}
						}
					}
				}
				JOINT RightCollar
				{
					OFFSET 0 0 0
					CHANNELS 3 Zrotation Yrotation Xrotation
					JOINT RightShoulder
					{
						OFFSET -3.38693 1.28904 -0.07093
CHANNELS 3 Zrotation Xrotation Yrotation
						JOINT RightElbow
						{
OFFSET 0 -5.141820 -0.000000
CHANNELS 3 Zrotation Xrotation Yrotation
							JOINT RightWrist
							{
OFFSET 0 -3.355650 -0.000000
CHANNELS 3 Zrotation Xrotation Yrotation
								JOINT rhand
								{
									OFFSET 0 0 0
CHANNELS 3 Zrotation Xrotation Yrotation
									JOINT RFingers
									{
OFFSET 0 -0.801040 -0.000000
CHANNELS 3 Zrotation Xrotation Yrotation
										End Site
										{
OFFSET 0 -0.645820 -0.000000
										}
									}
								}
								JOINT RThumb
								{
OFFSET 0 0.000000 0.000000
CHANNELS 3 Zrotation Xrotation Yrotation
									End Site
									{
OFFSET 0 -0.655680 0.655680
									}
								}
							}
						}
					}
				}
			}
		}
	}
}
MOTION
Frames: 9
Frame Time: 0.008333333333333333
-1.208100 18.237700 -0.630000 1.837600 0.676700 7.600300 0.000000 0.000000 0.000000 -15.634500 -11.483100 -8.791800 0.737700 5.487000 15.303100 0.061400 10.720600 -16.158900 0.809300 -5.740900 -16.034600 0.000000 0.000000 0.000000 20.967900 9.391900 -10.077400 -0.919100 -6.108100 17.098500 -0.191500 -10.228600 -17.274400 -0.064100 1.634000 -4.495200 0.492400 0.416600 5.747700 -0.019400 0.585900 0.399400 -0.343600 0.285500 -2.805700 -7.193400 -9.905400 -4.728500 6.002600 -12.990100 1.527100 2.646700 -6.422300 2.259700 0.000000 -0.000000 0.000000 12.267600 4.970200 -65.519400 26.997600 -38.176900 9.497600 15.725700 -5.036700 -29.557100 0.000000 0.000000 0.000000 -7.125000 0.000000 0.000000 -17.583000 59.614500 6.394500 0.000000 -0.000000 0.000000 -8.707400 9.810000 35.201900 -28.579100 -39.643900 -10.491100 -10.295200 -16.366800 -14.772700 0.000000 0.000000 0.000000 7.125000 0.000000 -0.000000 11.673200 15.183700 8.386900
-1.211573 18.219319 -0.576856 1.527715 0.899705 6.963207 0.000000 0.000000 0.000000 -15.619286 -11.067478 -6.495894 0.528418 4.657846 12.935376 -0.027098 11.590875 -16.110735 0.857696 -5.905809 -16.511478 0.000000 0.000000 0.000000 21.483921 8.806182 -9.299643 -0.915365 -6.096112 17.063473 -0.210635 -10.157793 -17.432401 -0.066075 1.657657 -4.560418 0.580135 0.452104 5.552387 0.211874 0.644377 0.350099 -0.158012 0.314875 -2.748264 -7.131232 -9.863273 -4.502346 6.015728 -12.956444 1.631663 2.651795 -6.408126 2.247861 0.000000 0.000000 0.000000 11.883690 5.544008 -64.578115 26.894207 -38.078096 9.433815 14.415938 -6.077892 -28.860997 0.000000 0.000000 0.000000 -7.125000 0.000000 0.000000 -18.480539 58.655641 6.307281 0.000000 0.000000 0.000000 -8.554914 9.484832 34.827082 -29.315136 -40.298960 -10.963961 -10.663511 -16.582349 -14.843498 0.000000 0.000000 0.000000 7.125000 0.000000 0.000000 11.423920 15.088326 8.224059
-1.211982 18.209164 -0.538785 1.483626 1.366250 6.494066 0.000000 0.000000 0.000000 -15.598641 -10.227298 -5.488390 0.442318 4.267204 11.829723 -0.014174 10.891949 -15.293074 0.993562 -6.343347 -17.784110 0.000000 0.000000 0.000000 21.663037 8.236085 -8.717411 -0.913914 -6.091278 17.049518 -0.224308 -10.240383 -17.698409 -0.069688 1.702554 -4.684244 0.348881 0.423083 5.317397 0.295871 0.593001 0.241988 0.063548 0.292641 -2.731560 -6.804821 -9.834707 -4.259771 5.859603 -12.944911 1.614879 2.558910 -6.406573 2.158397 0.000000 0.000000 0.000000 11.751921 5.747688 -63.833232 26.470746 -37.669791 9.173811 12.182797 -6.176651 -29.931364 0.000000 0.000000 0.000000 -7.125000 0.000000 0.000000 -21.578918 59.156351 7.685969 0.000000 0.000000 0.000000 -8.142130 9.276533 34.393523 -29.981917 -40.877880 -11.397773 -10.573031 -17.114503 -15.714849 0.000000 0.000000 0.000000 7.125000 0.000000 0.000000 11.468261 14.228988 8.472526
-1.194477 18.209599 -0.495061 1.912784 1.532264 6.125900 0.000000 0.000000 0.000000 -16.246288 -9.327091 -4.415827 0.346051 3.779786 10.457871 -0.021669 10.578994 -14.726068 1.044420 -6.499340 -18.240195 0.000000 0.000000 0.000000 21.164555 8.016689 -8.360062 -0.947417 -6.198952 17.362856 -0.258587 -10.211437 -18.081423 -0.072995 1.742622 -4.795006 -0.136673 0.524629 5.030033 0.096505 0.693724 0.068703 0.125155 0.347915 -2.751959 -6.699673 -9.821007 -4.211956 5.702787 -12.937590 1.859285 2.487428 -6.405045 2.209073 0.000000 0.000000 0.000000 12.052954 6.142281 -62.946324 26.883472 -38.067743 9.427226 11.512061 -4.226007 -29.053513 0.000000 0.000000 0.000000 -7.125000 0.000000 0.000000 -21.620426 58.196631 7.199099 0.000000 0.000000 0.000000 -7.622630 9.299423 34.192258 -30.440882 -41.268296 -11.699295 -12.215236 -18.027122 -15.553998 0.000000 0.000000 0.000000 7.125000 0.000000 0.000000 10.372643 14.264857 7.625321
-1.161802 18.208101 -0.457165 1.931114 1.741342 5.694549 0.000000 0.000000 0.000000 -16.489676 -9.229385 -3.384780 0.299314 3.517912 9.724211 -0.049961 10.813284 -14.617673 1.056062 -6.532840 -18.339113 0.000000 0.000000 0.000000 21.156356 7.823619 -7.647167 -0.933213 -6.153558 17.230708 -0.233282 -10.585349 -18.209807 -0.086811 1.899923 -5.229150 -0.078235 0.593901 4.647143 0.010230 0.787428 -0.005024 0.000719 0.393383 -2.611373 -6.775586 -9.786375 -3.840856 5.479240 -12.888054 1.496113 2.457824 -6.390774 2.005685 0.000000 0.000000 0.000000 12.372757 6.448278 -62.065985 27.918328 -39.040695 10.072241 9.777847 -3.220308 -28.513251 0.000000 0.000000 0.000000 -7.125000 0.000000 0.000000 -22.991520 57.329038 7.198995 0.000000 0.000000 0.000000 -7.489015 9.684290 34.946874 -31.370690 -42.039552 -12.317387 -12.466224 -18.636306 -15.728040 0.000000 0.000000 0.000000 7.125000 0.000000 0.000000 10.203763 14.070530 7.539853
-1.108948 18.202967 -0.411000 2.031330 1.502744 5.260885 0.000000 0.000000 0.000000 -16.923308 -8.951552 -2.499240 0.279657 3.401027 9.397230 -0.056461 10.983996 -14.770326 1.116185 -6.711593 -18.863626 0.000000 0.000000 0.000000 20.928970 7.534494 -7.059090 -0.936277 -6.163339 17.258991 -0.261054 -10.375342 -18.297860 -0.104832 2.086793 -5.745592 -0.105910 0.823526 4.301746 -0.067172 1.090481 -0.069508 -0.079013 0.544431 -2.483259 -6.808181 -9.717342 -3.677284 5.219030 -12.786385 1.237318 2.399100 -6.346371 1.865297 0.000000 0.000000 0.000000 12.505099 6.800964 -61.443759 29.196096 -40.194071 10.887109 8.522317 -3.555785 -28.465121 0.000000 0.000000 0.000000 -7.125000 0.000000 0.000000 -24.214006 57.023253 7.430211 0.000000 0.000000 0.000000 -7.858577 10.094546 36.330188 -32.091717 -42.620180 -12.802913 -12.095224 -18.943415 -16.056625 0.000000 0.000000 0.000000 7.125000 0.000000 0.000000 10.450178 13.771320 7.795528
-1.058604 18.196120 -0.373700 2.178908 1.251933 4.877546 0.000000 0.000000 0.000000 -17.342039 -8.281965 -1.766445 0.249177 3.211848 8.869166 -0.042120 10.780508 -14.695547 1.058086 -6.540275 -18.360271 0.000000 0.000000 0.000000 20.653490 7.548527 -6.696837 -0.972004 -6.276539 17.588801 -0.276837 -10.373822 -18.481426 -0.136243 2.378755 -6.553660 -0.272047 0.986753 4.020191 -0.161818 1.298339 -0.162554 -0.092138 0.649676 -2.422350 -6.763110 -9.589578 -3.594034 5.030950 -12.614227 1.165591 2.345892 -6.263822 1.797370 0.000000 0.000000 0.000000 12.611530 7.259057 -61.102495 30.132388 -41.006571 11.496413 8.776852 -5.336396 -28.146607 0.000000 0.000000 0.000000 -7.125000 0.000000 0.000000 -23.733404 56.786792 7.132584 0.000000 0.000000 0.000000 -8.341234 10.412660 38.150642 -32.436486 -42.892398 -13.036945 -12.011140 -18.996573 -15.900569 0.000000 0.000000 0.000000 7.125000 0.000000 0.000000 10.506977 13.934183 7.802555
-1.000673 18.192274 -0.332226 2.184491 1.075456 4.469476 0.000000 0.000000 0.000000 -17.642964 -7.780694 -1.318644 0.254452 3.245486 8.962915 -0.010274 10.562520 -14.881233 1.078766 -6.601494 -18.540139 0.000000 0.000000 0.000000 20.500148 7.372577 -6.091998 -0.966914 -6.260734 17.542720 -0.309560 -10.203108 -18.669431 -0.125469 2.283403 -6.289590 -0.152340 1.127316 3.665129 -0.251691 1.490276 -0.206777 -0.255658 0.743678 -2.263354 -6.823664 -9.520682 -3.501799 4.957602 -12.525370 1.261127 2.339366 -6.222359 1.805660 0.000000 0.000000 0.000000 12.792848 7.764680 -61.028538 30.911213 -41.661740 12.010721 9.359288 -5.167240 -27.697103 0.000000 0.000000 0.000000 -7.125000 0.000000 0.000000 -22.842222 56.495513 6.680564 0.000000 0.000000 0.000000 -8.397655 10.508544 38.898475 -32.212980 -42.716287 -12.885054 -11.424517 -18.571390 -15.682446 0.000000 0.000000 0.000000 7.125000 0.000000 0.000000 10.900482 14.197799 8.043588
-0.943795 18.179967 -0.297663 2.147819 1.247350 3.859868 0.000000 0.000000 0.000000 -17.869493 -7.601548 -0.746261 0.271834 3.353581 9.264777 0.031425 10.334095 -15.201590 1.130514 -6.753069 -18.985810 0.000000 0.000000 0.000000 20.489883 7.181421 -5.200042 -0.961462 -6.243477 17.492440 -0.305060 -10.510414 -18.959333 -0.143295 2.439281 -6.721172 -0.116877 1.073523 3.564046 -0.182862 1.422030 -0.119095 -0.197888 0.709740 -2.117695 -6.864761 -9.404453 -3.375359 4.686358 -12.368855 1.338991 2.271337 -6.150353 1.780658 0.000000 0.000000 0.000000 12.559822 8.121259 -60.488946 30.875287 -41.631874 11.986851 9.366202 -5.164795 -27.769441 0.000000 0.000000 0.000000 -7.125000 0.000000 0.000000 -22.884584 56.563164 6.732114 0.000000 0.000000 0.000000 -8.620086 10.423926 39.490504 -31.750777 -42.347582 -12.572622 -12.055066 -18.921958 -16.386311 0.000000 0.000000 0.000000 7.125000 0.000000 0.000000 10.475656 13.444709 7.888644
